# xmcd CD database file
#
# Track frame offsets:
#	150
#	8066
#	25938
#	44384
#	62730
#	83811
#	104148
#
# Disc length: 1746 seconds
#
# Revision: 2
# Processed by: cddbd v1.5.2PL0 Copyright (c) Steve Scherf et al.
# Submitted via: CDex 1.70beta2
#
DISCID=5406d007
DTITLE=ริค วชิรปิลันธิ์ Rik - Pandora
DYEAR=2551
DGENRE=New Age
TTITLE0=โศลกโลหิต - ริค วชิรปิลันธิ์ Rik
TTITLE1=เมืองต้องทัณฑ์ - ริค วชิรปิลันธิ์ Rik
TTITLE2=อีเดน - ริค วชิรปิลันธิ์ Rik
TTITLE3=เงาบุหลัน - ริค วชิรปิลันธิ์ Rik
TTITLE4=เสี้ยม - ริค วชิรปิลันธิ์ Rik
TTITLE5=อันทรชาติ - ริค วชิรปิลันธิ์ Rik
TTITLE6=แสงแห่งความเศร้า - ริค วชิรปิลันธิ์ Rik
EXTD='Pandora' YEAR: 2551
EXTT0=
EXTT1=
EXTT2=
EXTT3=
EXTT4=
EXTT5=
EXTT6=
PLAYORDER=
